<?xml version="1.0"?>
<svg xmlns="http://www.w3.org/2000/svg" xmlns:xlink="http://www.w3.org/1999/xlink" xmlns:svgjs="http://svgjs.com/svgjs" version="1.1" width="512" height="512" x="0" y="0" viewBox="0 0 512 512" style="enable-background:new 0 0 512 512" xml:space="preserve" class=""><g><g xmlns="http://www.w3.org/2000/svg"><path d="m482 25h-452c-16.54 0-30 13.46-30 30v298c0 16.54 13.46 30 30 30h452c16.54 0 30-13.46 30-30v-298c0-16.54-13.46-30-30-30z" fill="#4088eb" data-original="#000000" style="" class=""/><path d="m416 457h-81v-44h-158v44h-81c-8.28 0-15 6.72-15 15s6.72 15 15 15h320c8.28 0 15-6.72 15-15s-6.72-15-15-15z" fill="#4088eb" data-original="#000000" style="" class=""/></g></g></svg>
